<svg width="289" height="30" viewBox="0 0 289 30" fill="none" xmlns="http://www.w3.org/2000/svg"><script xmlns=""/>
<g clip-path="url(#clip0_562_384)">
<path d="M18.1565 12V2.04783H21.407C22.4904 2.04783 23.3041 2.27101 23.8478 2.71739C24.3916 3.16377 24.6635 3.82522 24.6635 4.70174C24.6635 5.16435 24.5316 5.5742 24.2678 5.9313C24.0041 6.28841 23.6429 6.56638 23.1843 6.76522C23.7241 6.91536 24.1501 7.20145 24.4626 7.62348C24.7751 8.04551 24.9313 8.54667 24.9313 9.12696C24.9313 10.0197 24.6412 10.7217 24.0609 11.233C23.4806 11.7443 22.6629 12 21.6078 12H18.1565ZM19.4652 7.34348V10.9287H21.6322C22.2449 10.9287 22.7278 10.7704 23.0809 10.4539C23.4339 10.1374 23.6104 9.70116 23.6104 9.14522C23.6104 7.94406 22.9591 7.34348 21.6565 7.34348H19.4652ZM19.4652 6.29043H21.4496C22.0258 6.29043 22.4843 6.14841 22.8252 5.86435C23.1701 5.57623 23.3426 5.18464 23.3426 4.68956C23.3426 4.1458 23.1823 3.75014 22.8617 3.50261C22.5452 3.25101 22.0603 3.12522 21.407 3.12522H19.4652V6.29043ZM33.7574 3.12522H30.5557V12H29.247V3.12522H26.0574V2.04783H33.7574V3.12522ZM42.5553 8.84087C42.4295 9.89594 42.0399 10.7096 41.3866 11.2817C40.7333 11.8499 39.8649 12.1339 38.7814 12.1339C37.6046 12.1339 36.6611 11.7139 35.951 10.8739C35.2449 10.0299 34.8918 8.90174 34.8918 7.48957V6.53391C34.8918 5.6087 35.0562 4.79507 35.3849 4.09304C35.7136 3.39101 36.1802 2.8513 36.7849 2.47391C37.3936 2.09652 38.0976 1.90783 38.897 1.90783C39.9521 1.90783 40.7982 2.20406 41.4353 2.79652C42.0765 3.38493 42.4498 4.20058 42.5553 5.24348H41.2344C41.1208 4.45217 40.8733 3.88 40.4918 3.52696C40.1104 3.16985 39.5788 2.9913 38.897 2.9913C38.057 2.9913 37.3976 3.30174 36.9188 3.92261C36.444 4.53942 36.2066 5.42 36.2066 6.56435V7.53217C36.2066 8.61159 36.4318 9.46986 36.8823 10.107C37.3368 10.7441 37.9698 11.0626 38.7814 11.0626C39.5078 11.0626 40.0657 10.8983 40.4553 10.5696C40.8449 10.2368 41.1046 9.66058 41.2344 8.84087H42.5553Z" fill="white"/>
<path d="M0.826087 24V16.8913H3.14783C3.92174 16.8913 4.5029 17.0507 4.8913 17.3696C5.27971 17.6884 5.47391 18.1609 5.47391 18.787C5.47391 19.1174 5.37971 19.4101 5.1913 19.6652C5.0029 19.9203 4.74493 20.1188 4.41739 20.2609C4.8029 20.3681 5.10725 20.5725 5.33044 20.8739C5.55362 21.1754 5.66522 21.5333 5.66522 21.9478C5.66522 22.5855 5.45797 23.087 5.04348 23.4522C4.62899 23.8174 4.04493 24 3.2913 24H0.826087ZM1.76087 20.6739V23.2348H3.3087C3.74638 23.2348 4.0913 23.1217 4.34348 22.8957C4.59565 22.6696 4.72174 22.358 4.72174 21.9609C4.72174 21.1029 4.25652 20.6739 3.32609 20.6739H1.76087ZM1.76087 19.9217H3.17826C3.58986 19.9217 3.91739 19.8203 4.16087 19.6174C4.40725 19.4116 4.53043 19.1319 4.53043 18.7783C4.53043 18.3899 4.41594 18.1072 4.18696 17.9304C3.96087 17.7507 3.61449 17.6609 3.14783 17.6609H1.76087V19.9217ZM7.89569 24H6.99134V18.7174H7.89569V24ZM6.91743 17.3174C6.91743 17.1696 6.96235 17.0449 7.05221 16.9435C7.14206 16.842 7.2754 16.7913 7.45221 16.7913C7.62612 16.7913 7.75801 16.842 7.84786 16.9435C7.94061 17.0449 7.98699 17.1681 7.98699 17.313C7.98699 17.4609 7.94061 17.5841 7.84786 17.6826C7.75801 17.7783 7.62612 17.8261 7.45221 17.8261C7.2754 17.8261 7.14206 17.7783 7.05221 17.6826C6.96235 17.5841 6.91743 17.4623 6.91743 17.3174ZM10.561 17.4391V18.7174H11.548V19.413H10.561V22.6913C10.561 22.9029 10.6045 23.0623 10.6915 23.1696C10.7813 23.2739 10.9321 23.3261 11.1436 23.3261C11.248 23.3261 11.3915 23.3072 11.5741 23.2696V24C11.3364 24.0638 11.1045 24.0957 10.8784 24.0957C10.4755 24.0957 10.1712 23.9739 9.96539 23.7304C9.75959 23.487 9.65669 23.1406 9.65669 22.6913V19.413H8.69582V18.7174H9.65669V17.4391H10.561ZM14.7184 23.3609C15.0401 23.3609 15.3213 23.2638 15.5619 23.0696C15.8025 22.8725 15.9358 22.6275 15.9619 22.3348H16.8184C16.801 22.6362 16.6952 22.9246 16.501 23.2C16.3097 23.4725 16.0532 23.6899 15.7315 23.8522C15.4126 24.0145 15.0749 24.0957 14.7184 24.0957C13.9967 24.0957 13.4228 23.8565 12.9967 23.3783C12.5735 22.8971 12.3619 22.2406 12.3619 21.4087V21.2565C12.3619 20.7406 12.4561 20.2826 12.6445 19.8826C12.8358 19.4826 13.1068 19.1725 13.4575 18.9522C13.8112 18.729 14.23 18.6174 14.7141 18.6174C15.3054 18.6174 15.7967 18.7957 16.188 19.1522C16.5822 19.5058 16.7923 19.9667 16.8184 20.5348H15.9619C15.9358 20.1928 15.8054 19.9116 15.5706 19.6913C15.3387 19.471 15.0532 19.3609 14.7141 19.3609C14.2532 19.3609 13.8967 19.5261 13.6445 19.8565C13.3923 20.187 13.2662 20.6652 13.2662 21.2913V21.4609C13.2662 22.0696 13.3909 22.5391 13.6401 22.8696C13.8923 23.1971 14.2517 23.3609 14.7184 23.3609ZM17.5919 21.3087C17.5919 20.7928 17.6934 20.3275 17.8963 19.913C18.1021 19.4986 18.3861 19.1797 18.7484 18.9565C19.1108 18.7304 19.5252 18.6174 19.9919 18.6174C20.7108 18.6174 21.2919 18.8667 21.7354 19.3652C22.1789 19.8638 22.4006 20.5261 22.4006 21.3522V21.4174C22.4006 21.9304 22.3021 22.3913 22.105 22.8C21.9108 23.2087 21.6296 23.5275 21.2615 23.7565C20.8963 23.9826 20.476 24.0957 20.0006 24.0957C19.2847 24.0957 18.7035 23.8478 18.2571 23.3522C17.8137 22.8536 17.5919 22.1942 17.5919 21.3739V21.3087ZM18.5006 21.4174C18.5006 22.0029 18.6368 22.4739 18.9093 22.8304C19.1818 23.1841 19.5455 23.3609 20.0006 23.3609C20.4586 23.3609 20.8224 23.1812 21.0919 22.8217C21.3644 22.4623 21.5006 21.958 21.5006 21.3087C21.5006 20.729 21.3629 20.2594 21.0876 19.9C20.8122 19.5406 20.447 19.3609 19.9919 19.3609C19.5455 19.3609 19.1847 19.5391 18.9093 19.8957C18.6368 20.2493 18.5006 20.7565 18.5006 21.4174ZM24.5168 24H23.6124V18.7174H24.5168V24ZM23.5385 17.3174C23.5385 17.1696 23.5834 17.0449 23.6733 16.9435C23.7632 16.842 23.8965 16.7913 24.0733 16.7913C24.2472 16.7913 24.3791 16.842 24.469 16.9435C24.5617 17.0449 24.6081 17.1681 24.6081 17.313C24.6081 17.4609 24.5617 17.5841 24.469 17.6826C24.3791 17.7783 24.2472 17.8261 24.0733 17.8261C23.8965 17.8261 23.7632 17.7783 23.6733 17.6826C23.5834 17.5841 23.5385 17.4623 23.5385 17.3174ZM26.8126 18.7174L26.8387 19.3826C27.2445 18.8725 27.772 18.6174 28.4213 18.6174C29.5401 18.6174 30.1039 19.2478 30.1126 20.5087V24H29.2082V20.5043C29.2053 20.1246 29.1184 19.8435 28.9474 19.6609C28.7763 19.4783 28.5097 19.387 28.1474 19.387C27.8546 19.387 27.5981 19.4652 27.3778 19.6217C27.1575 19.7783 26.985 19.9826 26.8604 20.2348V24H25.956V18.7174H26.8126Z" fill="#696F77"/>
<circle cx="6.5" cy="7.5" r="6.5" fill="white"/>
<path fill-rule="evenodd" clip-rule="evenodd" d="M6.5 14C2.90997 14 0 11.09 0 7.5C0 3.90997 2.90997 1 6.5 1C10.09 1 13 3.90997 13 7.5C13 11.09 10.09 14 6.5 14ZM9.42053 6.69563C9.54809 5.84413 8.89931 5.38628 8.01288 5.08078L8.3005 3.92703L7.5985 3.75234L7.31819 4.87562C7.13375 4.82931 6.94444 4.78625 6.75553 4.74319L7.03787 3.61259L6.33588 3.4375L6.04825 4.59084C5.8955 4.55591 5.74519 4.52178 5.59975 4.48522L5.60056 4.48156L4.63206 4.23984L4.44519 4.98978C4.44519 4.98978 4.96641 5.10922 4.95544 5.11653C5.23981 5.18762 5.291 5.37572 5.28247 5.52522L4.95503 6.83944C4.97453 6.84431 4.99972 6.85162 5.02816 6.86259L4.95381 6.84431L4.49475 8.68544C4.45981 8.77156 4.37166 8.90116 4.17259 8.852C4.17991 8.86216 3.66234 8.72484 3.66234 8.72484L3.31378 9.52841L4.22784 9.75631C4.39766 9.79897 4.56422 9.84366 4.72794 9.8855L4.43747 11.0522L5.13906 11.2269L5.42669 10.0732C5.61844 10.1248 5.8045 10.1727 5.9865 10.2182L5.69969 11.3671L6.40169 11.5418L6.69216 10.3775C7.88978 10.6042 8.79003 10.5127 9.16906 9.42969C9.47456 8.55788 9.15403 8.05453 8.52394 7.72669C8.983 7.62106 9.32831 7.31922 9.42053 6.69563ZM7.81584 8.94544C7.59931 9.81766 6.13072 9.346 5.65459 9.22778L6.04053 7.682C6.51666 7.80103 8.04294 8.03625 7.81584 8.94544ZM8.03319 6.68303C7.83534 7.47644 6.61334 7.07303 6.21725 6.97431L6.56662 5.57275C6.96272 5.67147 8.23956 5.8555 8.03319 6.68303Z" fill="#FF9900"/>
<path d="M85 17.3703C85 17.3703 87.6744 12.0997 90.2166 13.3799C92.0545 14.3055 93.2372 13.3352 93.3361 12.4851C93.3671 12.2852 93.4099 12.0883 93.4641 11.8958C93.7195 10.914 94.8573 7.58645 97.1684 11.7174C99.9094 16.6174 101.605 22.9318 102.889 17.8817C104.174 12.8315 106.333 17.8817 106.333 17.8817C106.333 17.8817 106.346 17.9181 106.445 18.1373C106.596 18.501 107.763 20.8219 110.115 18.7535C112.749 16.4352 113.717 15.3441 114.968 18.0619C116.219 20.7797 117.733 25.0066 119.531 18.7535C121.329 12.5004 123.517 5.89263 125.114 9.65354C126.711 13.4145 128.44 10.4071 128.44 10.4071L130 8" stroke="#0DB27C" stroke-width="1.5" stroke-linecap="round"/>
<path d="M155.297 19H149.71V18.2226L152.663 14.9409C153.101 14.4435 153.402 14.04 153.565 13.7304C153.732 13.4209 153.816 13.0991 153.816 12.7652C153.816 12.32 153.68 11.9548 153.409 11.6696C153.141 11.3843 152.783 11.2417 152.334 11.2417C151.795 11.2417 151.376 11.3948 151.077 11.7009C150.777 12.007 150.628 12.4348 150.628 12.9843H149.543C149.543 12.1983 149.795 11.5635 150.299 11.08C150.807 10.593 151.485 10.3496 152.334 10.3496C153.127 10.3496 153.753 10.5583 154.212 10.9757C154.675 11.393 154.906 11.9461 154.906 12.6348C154.906 13.4765 154.37 14.4765 153.299 15.6348L151.014 18.113H155.297V19ZM160.011 19H158.921V11.7739L156.735 12.5774V11.5913L159.839 10.4278H160.011V19ZM163.259 20.7009L162.649 20.2783C163.014 19.767 163.205 19.24 163.223 18.6974V17.7165H164.282V18.567C164.282 18.96 164.184 19.353 163.99 19.7461C163.798 20.1426 163.555 20.4609 163.259 20.7009ZM167.117 14.2052H167.931C168.442 14.1983 168.844 14.0643 169.136 13.8035C169.432 13.5426 169.58 13.1896 169.58 12.7443C169.58 11.7426 169.081 11.2417 168.082 11.2417C167.616 11.2417 167.242 11.3757 166.961 11.6435C166.682 11.9113 166.543 12.2661 166.543 12.7078H165.458C165.458 12.033 165.705 11.4713 166.199 11.0226C166.693 10.5739 167.321 10.3496 168.082 10.3496C168.889 10.3496 169.521 10.5635 169.976 10.9913C170.432 11.4157 170.66 12.007 170.66 12.7652C170.66 13.1374 170.54 13.4974 170.3 13.8452C170.06 14.193 169.733 14.4522 169.319 14.6226C169.789 14.7722 170.15 15.0191 170.404 15.3635C170.662 15.7043 170.79 16.1235 170.79 16.6209C170.79 17.3861 170.54 17.993 170.039 18.4417C169.542 18.8904 168.893 19.1148 168.093 19.1148C167.289 19.1148 166.637 18.8991 166.136 18.4678C165.636 18.033 165.385 17.4609 165.385 16.7513H166.47C166.47 17.2 166.616 17.56 166.909 17.8313C167.204 18.0991 167.597 18.233 168.088 18.233C168.613 18.233 169.013 18.0974 169.288 17.8261C169.566 17.5513 169.705 17.1583 169.705 16.647C169.705 16.1496 169.552 15.7687 169.246 15.5043C168.943 15.2365 168.505 15.0991 167.931 15.0922H167.117V14.2052ZM177.456 12.6974C177.456 13.1217 177.342 13.5009 177.116 13.8348C176.89 14.1652 176.586 14.4243 176.203 14.6122C176.649 14.8035 177.002 15.0835 177.262 15.4522C177.523 15.8174 177.654 16.233 177.654 16.6991C177.654 17.4365 177.403 18.0243 176.902 18.4626C176.405 18.8974 175.751 19.1148 174.941 19.1148C174.12 19.1148 173.462 18.8957 172.969 18.4574C172.475 18.0191 172.228 17.433 172.228 16.6991C172.228 16.2365 172.353 15.8209 172.603 15.4522C172.857 15.08 173.207 14.7983 173.652 14.607C173.273 14.4191 172.974 14.16 172.755 13.8296C172.536 13.4957 172.426 13.1183 172.426 12.6974C172.426 11.9774 172.656 11.407 173.115 10.9861C173.577 10.5617 174.186 10.3496 174.941 10.3496C175.689 10.3496 176.294 10.5617 176.756 10.9861C177.222 11.407 177.456 11.9774 177.456 12.6974ZM176.569 16.673C176.569 16.1965 176.417 15.8087 176.115 15.5096C175.812 15.207 175.417 15.0557 174.93 15.0557C174.44 15.0557 174.047 15.2052 173.751 15.5043C173.459 15.8 173.313 16.1896 173.313 16.673C173.313 17.1565 173.456 17.5374 173.741 17.8157C174.029 18.0939 174.429 18.233 174.941 18.233C175.449 18.233 175.847 18.0939 176.136 17.8157C176.424 17.5339 176.569 17.153 176.569 16.673ZM174.941 11.2417C174.513 11.2417 174.167 11.3739 173.902 11.6383C173.642 11.9026 173.511 12.2609 173.511 12.713C173.511 13.1478 173.64 13.4991 173.897 13.767C174.158 14.0313 174.506 14.1635 174.941 14.1635C175.372 14.1635 175.718 14.0313 175.979 13.767C176.24 13.4991 176.37 13.1478 176.37 12.713C176.37 12.2783 176.235 11.9252 175.963 11.6539C175.696 11.3791 175.355 11.2417 174.941 11.2417ZM183.27 10.4643V11.3826H183.072C182.227 11.4 181.554 11.6504 181.053 12.1339C180.556 12.6174 180.267 13.2991 180.187 14.1791C180.639 13.6609 181.253 13.4017 182.029 13.4017C182.773 13.4017 183.366 13.6643 183.808 14.1896C184.249 14.7113 184.47 15.3878 184.47 16.2191C184.47 17.0957 184.23 17.7983 183.75 18.327C183.274 18.8522 182.634 19.1148 181.83 19.1148C181.013 19.1148 180.35 18.8017 179.843 18.1757C179.335 17.5496 179.081 16.7426 179.081 15.7548V15.3374C179.081 13.7687 179.415 12.5687 180.083 11.7374C180.754 10.9061 181.752 10.4817 183.077 10.4643H183.27ZM181.846 14.3043C181.477 14.3043 181.136 14.4157 180.823 14.6383C180.51 14.8609 180.293 15.1409 180.171 15.4783V15.8748C180.171 16.5809 180.329 17.1496 180.646 17.5809C180.963 18.0087 181.357 18.2226 181.83 18.2226C182.317 18.2226 182.7 18.0435 182.978 17.6852C183.26 17.3235 183.401 16.8522 183.401 16.2713C183.401 15.6835 183.258 15.2087 182.973 14.847C182.691 14.4852 182.316 14.3043 181.846 14.3043Z" fill="white"/>
<path d="M240.192 12.2305L243.907 16.6879C244.341 17.2089 243.97 18 243.292 18L236.708 18C236.03 18 235.659 17.2089 236.093 16.6879L239.808 12.2305C239.908 12.1105 240.092 12.1105 240.192 12.2305Z" fill="#00B87A"/>
<path d="M252.923 14.4243H255.303V15.447H252.923V18.1443H251.838V15.447H249.459V14.4243H251.838V11.9357H252.923V14.4243ZM258.094 14.2052H258.908C259.419 14.1983 259.821 14.0643 260.113 13.8035C260.409 13.5426 260.556 13.1896 260.556 12.7443C260.556 11.7426 260.057 11.2417 259.059 11.2417C258.593 11.2417 258.219 11.3757 257.937 11.6435C257.659 11.9113 257.52 12.2661 257.52 12.7078H256.435C256.435 12.033 256.682 11.4713 257.176 11.0226C257.669 10.5739 258.297 10.3496 259.059 10.3496C259.866 10.3496 260.497 10.5635 260.953 10.9913C261.409 11.4157 261.636 12.007 261.636 12.7652C261.636 13.1374 261.516 13.4974 261.276 13.8452C261.036 14.193 260.709 14.4522 260.296 14.6226C260.765 14.7722 261.127 15.0191 261.381 15.3635C261.638 15.7043 261.767 16.1235 261.767 16.6209C261.767 17.3861 261.516 17.993 261.016 18.4417C260.518 18.8904 259.869 19.1148 259.069 19.1148C258.266 19.1148 257.614 18.8991 257.113 18.4678C256.612 18.033 256.362 17.4609 256.362 16.7513H257.447C257.447 17.2 257.593 17.56 257.885 17.8313C258.181 18.0991 258.574 18.233 259.064 18.233C259.589 18.233 259.989 18.0974 260.264 17.8261C260.543 17.5513 260.682 17.1583 260.682 16.647C260.682 16.1496 260.529 15.7687 260.223 15.5043C259.92 15.2365 259.482 15.0991 258.908 15.0922H258.094V14.2052ZM263.486 19.0209C263.486 18.8191 263.543 18.6574 263.658 18.5357C263.78 18.407 263.952 18.3426 264.175 18.3426C264.401 18.3426 264.576 18.407 264.702 18.5357C264.82 18.6574 264.879 18.8191 264.879 19.0209C264.879 19.2087 264.82 19.3617 264.702 19.48C264.573 19.6052 264.397 19.6678 264.175 19.6678C263.952 19.6678 263.78 19.6052 263.658 19.48C263.543 19.3652 263.486 19.2122 263.486 19.0209ZM271.231 16.1357H272.415V17.0174H271.231V19H270.14V17.0174H266.258V16.3809L270.077 10.4696H271.231V16.1357ZM267.484 16.1357H270.14V11.9513L270.01 12.1861L267.484 16.1357ZM274.969 14.2052H275.783C276.294 14.1983 276.696 14.0643 276.988 13.8035C277.284 13.5426 277.431 13.1896 277.431 12.7443C277.431 11.7426 276.932 11.2417 275.934 11.2417C275.468 11.2417 275.094 11.3757 274.812 11.6435C274.534 11.9113 274.395 12.2661 274.395 12.7078H273.31C273.31 12.033 273.557 11.4713 274.051 11.0226C274.544 10.5739 275.172 10.3496 275.934 10.3496C276.741 10.3496 277.372 10.5635 277.828 10.9913C278.284 11.4157 278.511 12.007 278.511 12.7652C278.511 13.1374 278.391 13.4974 278.151 13.8452C277.911 14.193 277.584 14.4522 277.171 14.6226C277.64 14.7722 278.002 15.0191 278.256 15.3635C278.513 15.7043 278.642 16.1235 278.642 16.6209C278.642 17.3861 278.391 17.993 277.891 18.4417C277.393 18.8904 276.744 19.1148 275.944 19.1148C275.141 19.1148 274.489 18.8991 273.988 18.4678C273.487 18.033 273.237 17.4609 273.237 16.7513H274.322C274.322 17.2 274.468 17.56 274.76 17.8313C275.056 18.0991 275.449 18.233 275.939 18.233C276.464 18.233 276.864 18.0974 277.139 17.8261C277.418 17.5513 277.557 17.1583 277.557 16.647C277.557 16.1496 277.404 15.7687 277.098 15.5043C276.795 15.2365 276.357 15.0991 275.783 15.0922H274.969V14.2052ZM280.038 12.1078C280.038 11.5965 280.199 11.1757 280.523 10.8452C280.85 10.5113 281.271 10.3443 281.785 10.3443C282.304 10.3443 282.723 10.5113 283.043 10.8452C283.366 11.1791 283.528 11.6122 283.528 12.1443V12.5617C283.528 13.0765 283.364 13.4974 283.038 13.8243C282.714 14.1513 282.3 14.3148 281.796 14.3148C281.288 14.3148 280.867 14.1513 280.533 13.8243C280.203 13.4974 280.038 13.0626 280.038 12.52V12.1078ZM280.846 12.5617C280.846 12.8643 280.931 13.1148 281.102 13.313C281.276 13.5113 281.507 13.6104 281.796 13.6104C282.074 13.6104 282.297 13.5148 282.464 13.3235C282.634 13.1322 282.719 12.8696 282.719 12.5357V12.1078C282.719 11.8052 282.636 11.5548 282.469 11.3565C282.302 11.1548 282.074 11.0539 281.785 11.0539C281.493 11.0539 281.264 11.1548 281.097 11.3565C280.93 11.5548 280.846 11.8139 280.846 12.1339V12.5617ZM284.191 16.9078C284.191 16.3965 284.354 15.9757 284.681 15.6452C285.008 15.3148 285.427 15.1496 285.938 15.1496C286.45 15.1496 286.869 15.3148 287.196 15.6452C287.526 15.9722 287.691 16.407 287.691 16.9496V17.367C287.691 17.8783 287.528 18.2991 287.201 18.6296C286.874 18.96 286.457 19.1252 285.949 19.1252C285.441 19.1252 285.02 18.9617 284.686 18.6348C284.356 18.3078 284.191 17.873 284.191 17.3304V16.9078ZM284.999 17.367C284.999 17.673 285.084 17.9252 285.255 18.1235C285.429 18.3217 285.66 18.4209 285.949 18.4209C286.231 18.4209 286.455 18.3252 286.622 18.1339C286.792 17.9391 286.878 17.6748 286.878 17.3409V16.9078C286.878 16.5983 286.792 16.3461 286.622 16.1513C286.451 15.9565 286.224 15.8591 285.938 15.8591C285.66 15.8591 285.434 15.9565 285.26 16.1513C285.086 16.3426 284.999 16.6035 284.999 16.9339V17.367ZM282.041 18.353L281.425 17.967L285.594 11.2991L286.204 11.6852L282.041 18.353Z" fill="#0DB27C"/>
</g>
<defs>
<clipPath id="clip0_562_384">
<rect width="288.82" height="29.69" fill="white"/>
</clipPath>
</defs>
</svg>