<svg xmlns="http://www.w3.org/2000/svg" xmlns:xlink="http://www.w3.org/1999/xlink" width="287.938" height="31.501" viewBox="0 0 287.938 31.501"><script xmlns=""/>
  <defs>
    <linearGradient id="linear-gradient" x1="0.5" x2="0.5" y2="1" gradientUnits="objectBoundingBox">
      <stop offset="0" stop-color="#f33" stop-opacity="0.129"/>
      <stop offset="1" stop-color="#f33" stop-opacity="0"/>
    </linearGradient>
  </defs>
  <g id="Ethereum" transform="translate(-16 -15)">
    <path id="Path_14797" data-name="Path 14797" d="M1.258,0h7.3V-1.266H3.211v-.125L5.773-4.039c2.039-2.1,2.594-3.039,2.594-4.328v-.016a3.25,3.25,0,0,0-3.477-3.156A3.461,3.461,0,0,0,1.18-8.1l.016.008,1.344.008L2.547-8.1A2.106,2.106,0,0,1,4.8-10.312,2,2,0,0,1,6.93-8.234v.016c0,.984-.422,1.57-1.859,3.125L1.258-.969Zm9.086,2.867h1.008l1.227-4.445H11.023ZM18.8.188c2.258,0,3.914-1.391,3.914-3.273V-3.1a2.729,2.729,0,0,0-2.758-2.766V-5.9a2.712,2.712,0,0,0,2.391-2.641v-.016c0-1.711-1.414-2.906-3.562-2.906A3.439,3.439,0,0,0,15.039-8.4l-.008.078h1.352l.008-.078a2.152,2.152,0,0,1,2.391-1.844c1.375,0,2.148.68,2.148,1.859v.016a2.057,2.057,0,0,1-2.281,1.953H17.3v1.188h1.414c1.578,0,2.57.773,2.57,2.156v.016c0,1.2-1.008,2.023-2.484,2.023-1.5,0-2.523-.766-2.633-1.875l-.008-.078H14.8l.008.094C14.961-1.109,16.469.188,18.8.188ZM30.141,0h1.375V-2.336h1.6V-3.594h-1.6v-7.68H29.477c-1.578,2.352-3.3,5.1-4.828,7.656v1.281h5.492ZM26.086-3.586V-3.68c1.227-2.07,2.7-4.4,3.969-6.289h.094v6.383ZM38.992.266a3.733,3.733,0,0,0,3.922-3.859v-.016a3.58,3.58,0,0,0-3.641-3.766A2.79,2.79,0,0,0,36.867-6.2h-.125l.383-3.812h5.164v-1.258H36.016L35.422-4.8h1.219a2.644,2.644,0,0,1,.516-.672,2.632,2.632,0,0,1,1.875-.687,2.446,2.446,0,0,1,2.508,2.57v.016A2.449,2.449,0,0,1,39.008-.977a2.324,2.324,0,0,1-2.43-1.937l-.008-.062H35.219l.008.086A3.55,3.55,0,0,0,38.992.266ZM45.75.078A1.019,1.019,0,0,0,46.766-.937,1.014,1.014,0,0,0,45.75-1.953,1.019,1.019,0,0,0,44.734-.937,1.024,1.024,0,0,0,45.75.078Zm7,.109c2.258,0,3.914-1.391,3.914-3.273V-3.1a2.729,2.729,0,0,0-2.758-2.766V-5.9A2.712,2.712,0,0,0,56.3-8.539v-.016c0-1.711-1.414-2.906-3.562-2.906A3.439,3.439,0,0,0,48.992-8.4l-.008.078h1.352l.008-.078a2.152,2.152,0,0,1,2.391-1.844c1.375,0,2.148.68,2.148,1.859v.016A2.057,2.057,0,0,1,52.6-6.414H51.25v1.188h1.414c1.578,0,2.57.773,2.57,2.156v.016c0,1.2-1.008,2.023-2.484,2.023-1.5,0-2.523-.766-2.633-1.875l-.008-.078H48.758l.008.094C48.914-1.109,50.422.188,52.75.188ZM61.7,0h1.406V-11.273h-1.4l-3,2.156v1.484l2.867-2.078H61.7Zm8.352-11.539a3.793,3.793,0,0,0-3.945,3.883v.016a3.639,3.639,0,0,0,3.7,3.773,3.187,3.187,0,0,0,3-1.742h.148C72.922-3.141,72.1-.992,69.977-.992A2.266,2.266,0,0,1,67.7-2.523l-.031-.086H66.258l.023.1A3.581,3.581,0,0,0,69.961.266C72.7.266,74.3-1.984,74.3-5.828v-.016C74.3-10.086,72.117-11.539,70.055-11.539Zm-.008,6.445a2.465,2.465,0,0,1-2.523-2.578v-.016A2.561,2.561,0,0,1,70.07-10.3a2.578,2.578,0,0,1,2.547,2.656v.008A2.489,2.489,0,0,1,70.047-5.094ZM76.711,0h1.477L83.2-9.969v-1.3H75.742v1.258h6.031v.109Z" transform="translate(159 34)" fill="#fff"/>
    <path id="Path_14798" data-name="Path 14798" d="M5.031.266c2.492,0,3.992-2.273,3.992-5.9v-.016c0-3.625-1.5-5.891-3.992-5.891S1.055-9.273,1.055-5.648v.016C1.055-2.008,2.539.266,5.031.266Zm0-1.227c-1.617,0-2.562-1.8-2.562-4.672v-.016c0-2.875.945-4.656,2.563-4.656S7.609-8.523,7.609-5.648v.016C7.609-2.758,6.648-.961,5.031-.961Zm6.8,1.039A1.019,1.019,0,0,0,12.844-.937a1.014,1.014,0,0,0-1.016-1.016A1.019,1.019,0,0,0,10.813-.937,1.024,1.024,0,0,0,11.828.078ZM17.672,0h1.406V-11.273h-1.4l-3,2.156v1.484l2.867-2.078h.125ZM22.8,0h1.477L29.3-9.969v-1.3H21.836v1.258h6.031v.109ZM33.547-5.344c1.438,0,2.313-1.172,2.313-3.039v-.008c0-1.867-.875-3.031-2.312-3.031s-2.3,1.164-2.3,3.031v.008C31.242-6.516,32.109-5.344,33.547-5.344ZM34.367,0l7.7-11.273H40.82L33.125,0Zm-.82-6.273c-.773,0-1.219-.789-1.219-2.109v-.008c0-1.32.445-2.1,1.219-2.1s1.227.781,1.227,2.1v.008C34.773-7.062,34.32-6.273,33.547-6.273ZM41.625.148c1.438,0,2.313-1.172,2.313-3.039V-2.9c0-1.867-.875-3.031-2.312-3.031s-2.3,1.164-2.3,3.031v.008C39.32-1.023,40.188.148,41.625.148Zm0-.93c-.773,0-1.219-.789-1.219-2.109V-2.9c0-1.32.445-2.1,1.219-2.1s1.227.781,1.227,2.1v.008C42.852-1.57,42.4-.781,41.625-.781Z" transform="translate(260 34)" fill="#f5465d"/>
    <g id="Group_6" data-name="Group 6" transform="translate(88.169 20.068)">
      <path id="Path_196" data-name="Path 196" d="M302.558,193.275s-3.328-6.606-6.491-5c-2.287,1.16-3.759-.056-3.885-1.123h0a6.351,6.351,0,0,0-.159-.739c-.318-1.23-1.734-5.4-4.609-.224-3.411,6.141-5.521,14.056-7.119,7.726s-4.285,0-4.285,0-.016.046-.139.321c-.187.456-1.64,3.367-4.567.772-3.278-2.906-4.482-4.273-6.039-.867s-3.44,8.7-5.678.867-4.96-16.119-6.947-11.406-4.139.944-4.139.944l-1.941-3.017v22.488h56Z" transform="translate(-246.558 -181.527)" fill="url(#linear-gradient)"/>
      <path id="Path_195" data-name="Path 195" d="M302.558,191.973s-3.328-5.874-6.491-4.448c-2.287,1.031-3.759-.05-3.885-1h0a5.1,5.1,0,0,0-.159-.657c-.318-1.094-1.734-4.8-4.609-.2-3.411,5.461-5.521,12.5-7.119,6.87s-4.285,0-4.285,0-.016.041-.139.285c-.187.405-1.64,2.994-4.567.686-3.278-2.584-4.482-3.8-6.039-.771s-3.44,7.74-5.678.771-4.96-14.334-6.947-10.143-4.139.84-4.139.84l-1.941-2.683" transform="translate(-246.558 -180.595)" fill="none" stroke="#f5465d" stroke-linecap="round" stroke-width="1"/>
    </g>
    <g id="Group_1704" data-name="Group 1704" transform="translate(249.815 29.623) rotate(-90)">
      <g id="Group_1703" data-name="Group 1703" transform="translate(0 0)">
        <path id="Path_704" data-name="Path 704" d="M0,0H3.709" transform="translate(0 2.576) rotate(45)" fill="none" stroke="#f5465d" stroke-linecap="round" stroke-width="2"/>
        <path id="Path_705" data-name="Path 705" d="M0,0H3.709" transform="translate(0 2.623) rotate(-45)" fill="#f5465d" stroke="#f5465d" stroke-linecap="round" stroke-width="2"/>
      </g>
    </g>
    <g id="Group_7332" data-name="Group 7332" transform="translate(16 13)">
      <path id="Path_14799" data-name="Path 14799" d="M1.391,0h7.3V-1.7H3.406V-4.922H8.4v-1.6H3.406V-9.578H8.688v-1.7h-7.3Zm12.6,0h2.016V-9.578h3.477v-1.7H10.523v1.7h3.469Zm7.6,0h2.016V-4.891h5.484V0H31.1V-11.273H29.094v4.688H23.609v-4.687H21.594Z" transform="translate(20 15)" fill="#fff"/>
      <circle id="Ellipse_212" data-name="Ellipse 212" cx="8" cy="8" r="8" transform="translate(0 2)" fill="#d6d6d6"/>
      <g id="Classic" transform="translate(4.656 4)">
        <g id="Ethereum-2" data-name="Ethereum">
          <g id="Group_1710" data-name="Group 1710">
            <path id="Combined-Shape" d="M0,6.03,3.449,0V4.406Zm6.726,0L3.449,4.408V0Z" fill="#828384" fill-rule="evenodd"/>
            <path id="Combined-Shape-2" data-name="Combined-Shape" d="M3.449,99.769,0,97.649,3.449,96Zm3.277-2.119L3.449,99.769V96Z" transform="translate(0 -92.035)" fill="#343535" fill-rule="evenodd"/>
            <path id="Combined-Shape-3" data-name="Combined-Shape" d="M0,148l3.449,2.175v2.912Zm6.726,0-3.277,5.088v-2.912Z" transform="translate(0 -142.05)" fill="#828384" fill-rule="evenodd"/>
            <path id="Path-3" d="M83.58,6.03,80,4.408V0Z" transform="translate(-76.854)" fill="#2f3030" fill-rule="evenodd"/>
            <path id="Path-5" d="M83.58,97.649,80,96v3.769Z" transform="translate(-76.854 -92.035)" fill="#131313" fill-rule="evenodd"/>
            <path id="Path-7" d="M83.58,148,80,150.175v2.912Z" transform="translate(-76.854 -142.05)" fill="#2f3030" fill-rule="evenodd"/>
          </g>
        </g>
      </g>
      <path id="Path_14981" data-name="Path 14981" d="M1.078,0H6.316V-.949H2.133V-3.855H6.1v-.937H2.133V-7.506H6.316v-.949H1.078Zm9.264.047a3.376,3.376,0,0,0,.592-.059V-.879a4.256,4.256,0,0,1-.469.023c-.656,0-.914-.3-.914-1.043V-5.473h1.383v-.844H9.551V-7.951H8.5v1.635h-1v.844h1v3.832C8.5-.434,9.041.047,10.342.047ZM12.516,0h1.02V-3.738a1.6,1.6,0,0,1,1.646-1.787c1.008,0,1.477.545,1.477,1.682V0h1.02V-4.09a2.059,2.059,0,0,0-2.209-2.338,1.856,1.856,0,0,0-1.84,1.061h-.094V-8.824h-1.02ZM22.1.111a2.515,2.515,0,0,0,2.607-1.7l.012-.047H23.7l-.023.053A1.629,1.629,0,0,1,22.119-.8a1.851,1.851,0,0,1-1.875-2.068h4.547v-.4c0-1.887-1.043-3.164-2.76-3.164S19.2-5.092,19.2-3.141v.006C19.2-1.154,20.291.111,22.1.111Zm-.07-5.631c.932,0,1.623.592,1.729,1.84H20.262A1.776,1.776,0,0,1,22.025-5.52ZM26.373,0h1.02V-3.914a1.53,1.53,0,0,1,1.664-1.541,3.668,3.668,0,0,1,.627.059v-.99a3.423,3.423,0,0,0-.51-.041,1.645,1.645,0,0,0-1.687,1.049h-.094v-.937h-1.02Zm6.973.111a2.515,2.515,0,0,0,2.607-1.7l.012-.047h-1.02l-.023.053A1.629,1.629,0,0,1,33.369-.8a1.851,1.851,0,0,1-1.875-2.068h4.547v-.4c0-1.887-1.043-3.164-2.76-3.164s-2.83,1.336-2.83,3.287v.006C30.451-1.154,31.541.111,33.346.111Zm-.07-5.631c.932,0,1.623.592,1.729,1.84H31.512A1.776,1.776,0,0,1,33.275-5.52ZM39.738.111A1.9,1.9,0,0,0,41.613-.943h.094V0h1.02V-6.316h-1.02v3.738A1.59,1.59,0,0,1,40-.791c-1.008,0-1.418-.545-1.418-1.682V-6.316h-1.02v4.09C37.564-.732,38.3.111,39.738.111ZM44.625,0h1.02V-3.914A1.523,1.523,0,0,1,47.1-5.525,1.2,1.2,0,0,1,48.41-4.289V0h1.02V-4.061a1.421,1.421,0,0,1,1.459-1.465c.891,0,1.318.463,1.318,1.395V0h1.02V-4.365a1.843,1.843,0,0,0-2.01-2.062A2.115,2.115,0,0,0,49.283-5.32h-.094a1.824,1.824,0,0,0-1.746-1.107,1.723,1.723,0,0,0-1.705,1.072h-.094v-.961h-1.02Z" transform="translate(0 33.39)" fill="#c4c4c4"/>
    </g>
  </g>
</svg>