<svg id="Component_110_11" data-name="Component 110 – 11" xmlns="http://www.w3.org/2000/svg" width="286" height="329" viewBox="0 0 286 329"><script xmlns=""/>
  <rect id="Rectangle_926" data-name="Rectangle 926" width="286" height="329" rx="8" fill="none"/>
  <g id="Group_1748" data-name="Group 1748" transform="translate(0 8)">
    <g id="Group_1746" data-name="Group 1746">
      <rect id="Rectangle_846" data-name="Rectangle 846" width="286" height="0.5" transform="translate(0 26)" fill="#202630"/>
      <path id="Path_14584" data-name="Path 14584" d="M1.438,0H8.281V-1.266H2.844V-11.273H1.438ZM11.07-10.047a.94.94,0,0,0,.938-.937.94.94,0,0,0-.937-.937.94.94,0,0,0-.937.938A.94.94,0,0,0,11.07-10.047ZM10.383,0h1.359V-8.422H10.383ZM14.3,0h1.359V-5.219A2.03,2.03,0,0,1,17.6-7.367a1.6,1.6,0,0,1,1.75,1.648V0h1.359V-5.414a1.894,1.894,0,0,1,1.945-1.953c1.188,0,1.758.617,1.758,1.859V0h1.359V-5.82a2.457,2.457,0,0,0-2.68-2.75,2.82,2.82,0,0,0-2.578,1.477h-.125A2.431,2.431,0,0,0,18.063-8.57a2.3,2.3,0,0,0-2.273,1.43h-.125V-8.422H14.3ZM28.945-10.047a.94.94,0,0,0,.938-.937.94.94,0,0,0-.937-.937.94.94,0,0,0-.937.938A.94.94,0,0,0,28.945-10.047ZM28.258,0h1.359V-8.422H28.258Zm6.914.063a4.5,4.5,0,0,0,.789-.078V-1.172a5.675,5.675,0,0,1-.625.031c-.875,0-1.219-.4-1.219-1.391V-7.3h1.844V-8.422H34.117V-10.6H32.711v2.18H31.383V-7.3h1.328v5.109C32.711-.578,33.438.063,35.172.063Z" transform="translate(30 15)" fill="#2fbf83"/>
      <path id="Path_14583" data-name="Path 14583" d="M1.438,0H2.75V-8.609h.086L6.4,0H7.586l3.563-8.609h.086V0h1.313V-11.273H10.914L7.055-1.867H6.93L3.07-11.273H1.438ZM17.563.148a2.807,2.807,0,0,0,2.547-1.391h.125V0h1.359V-5.766c0-1.75-1.148-2.8-3.2-2.8-1.8,0-3.078.891-3.3,2.211l-.008.047h1.359l.008-.023c.219-.656.883-1.031,1.891-1.031,1.258,0,1.891.563,1.891,1.6V-5l-2.414.148c-1.961.117-3.07.984-3.07,2.484v.016A2.549,2.549,0,0,0,17.563.148ZM16.141-2.383V-2.4c0-.836.563-1.289,1.844-1.367l2.25-.141v.766a2.2,2.2,0,0,1-2.391,2.109C16.867-1.031,16.141-1.531,16.141-2.383ZM24.078,0h1.359V-5.219a2.04,2.04,0,0,1,2.219-2.055,4.891,4.891,0,0,1,.836.078v-1.32a4.564,4.564,0,0,0-.68-.055,2.193,2.193,0,0,0-2.25,1.4h-.125v-1.25H24.078ZM30.25,0h1.359V-3.2l.789-.766L35.555,0h1.711L33.352-4.883l3.672-3.539H35.375l-3.641,3.68h-.125v-7.023H30.25ZM41.906.148a3.354,3.354,0,0,0,3.477-2.266L45.4-2.18H44.039l-.031.07a2.171,2.171,0,0,1-2.07,1.047c-1.5,0-2.461-1.016-2.5-2.758H45.5v-.531c0-2.516-1.391-4.219-3.68-4.219s-3.773,1.781-3.773,4.383v.008C38.047-1.539,39.5.148,41.906.148Zm-.094-7.508c1.242,0,2.164.789,2.3,2.453H39.461A2.368,2.368,0,0,1,41.813-7.359ZM50.6.063a4.5,4.5,0,0,0,.789-.078V-1.172a5.675,5.675,0,0,1-.625.031c-.875,0-1.219-.4-1.219-1.391V-7.3h1.844V-8.422H49.547V-10.6H48.141v2.18H46.813V-7.3h1.328v5.109C48.141-.578,48.867.063,50.6.063Z" transform="translate(114 15)" fill="#999"/>
      <rect id="Rectangle_845" data-name="Rectangle 845" width="90" height="2" transform="translate(4 24)" fill="#2fbf83"/>
    </g>
    <rect id="Rectangle_39" data-name="Rectangle 39" width="189" height="38" rx="8" transform="translate(7.999 270)" fill="#2fbf83"/>
    <path id="Path_14601" data-name="Path 14601" d="M1.169,0H6.258c2.7,0,4.324-1.354,4.324-3.586V-3.6A3.057,3.057,0,0,0,7.611-6.7v-.044A2.811,2.811,0,0,0,9.958-9.5v-.018c0-1.916-1.477-3.164-3.727-3.164H1.169ZM5.757-11.074c1.415,0,2.232.642,2.232,1.8v.018c0,1.257-.94,1.96-2.646,1.96H3.138v-3.779Zm-.018,5.3c1.863,0,2.83.7,2.83,2.065v.018c0,1.371-.949,2.083-2.716,2.083H3.138V-5.774ZM17.42.211c3.19,0,5.124-1.89,5.124-4.667v-8.227h-1.96v8.068A2.893,2.893,0,0,1,17.42-1.529a2.9,2.9,0,0,1-3.173-3.085v-8.068H12.278v8.227C12.278-1.679,14.238.211,17.42.211ZM28.406,0h1.969V-5.194l4.474-7.488H32.66l-3.234,5.6h-.062l-3.234-5.6H23.941l4.465,7.488ZM39.894,0h5.089c2.7,0,4.324-1.354,4.324-3.586V-3.6A3.057,3.057,0,0,0,46.336-6.7v-.044A2.811,2.811,0,0,0,48.683-9.5v-.018c0-1.916-1.477-3.164-3.727-3.164H39.894Zm4.588-11.074c1.415,0,2.232.642,2.232,1.8v.018c0,1.257-.94,1.96-2.646,1.96H41.862v-3.779Zm-.018,5.3c1.863,0,2.83.7,2.83,2.065v.018c0,1.371-.949,2.083-2.716,2.083H41.862V-5.774ZM54.149,0h1.969V-10.986h3.876v-1.7H50.265v1.7h3.885ZM66.261.211a5.051,5.051,0,0,0,5.3-4.219l.009-.088H69.618l-.026.079a3.237,3.237,0,0,1-3.331,2.487c-2.347,0-3.867-1.881-3.867-4.816v-.009c0-2.936,1.512-4.8,3.867-4.8a3.2,3.2,0,0,1,3.3,2.391l.053.176h1.951l-.018-.079a5.069,5.069,0,0,0-5.291-4.228c-3.595,0-5.88,2.514-5.88,6.539v.009C60.381-2.32,62.666.211,66.261.211Z" transform="translate(66.13 295.341)" fill="#fff"/>
    <g id="Group_11067" data-name="Group 11067" transform="translate(203 265)">
      <g id="Rectangle_4417" data-name="Rectangle 4417" transform="translate(0 5)" fill="none" stroke="#f5465d" stroke-width="1">
        <rect width="75" height="38" rx="8" stroke="none"/>
        <rect x="0.5" y="0.5" width="74" height="37" rx="7.5" fill="none"/>
      </g>
      <path id="Path_14600" data-name="Path 14600" d="M5.493.211c3.006,0,4.834-1.468,4.834-3.779v-.009c0-1.96-1.125-3.023-3.744-3.577l-1.389-.29c-1.582-.343-2.3-.923-2.3-1.872v-.009c0-1.107,1-1.854,2.575-1.863,1.5,0,2.522.712,2.7,1.89l.009.123H10.09l-.009-.149c-.132-2.127-1.942-3.568-4.588-3.568-2.681,0-4.588,1.485-4.6,3.647v.009c0,1.881,1.2,3.023,3.691,3.551l1.38.29c1.679.369,2.373.923,2.373,1.942v.009c0,1.187-1.072,1.951-2.769,1.951s-2.865-.729-3.041-1.9l-.018-.114H.6l.009.132C.765-1.143,2.646.211,5.493.211ZM12.094,0h8.051V-1.7H14.063V-5.634h5.757V-7.286H14.063v-3.7h6.082v-1.7H12.094ZM22.166,0h7.875V-1.7H24.135V-12.683H22.166Zm9.563,0H39.6V-1.7H33.7V-12.683H31.729Z" transform="translate(17.399 30.341)" fill="#f5465d"/>
    </g>
    <g id="limit" transform="translate(8 42.901)">
      <rect id="Rectangle_4598" data-name="Rectangle 4598" width="270" height="32" rx="8" transform="translate(0 0.1)" fill="#202630"/>
      <path id="Path_14586" data-name="Path 14586" d="M1.078,0h3.3c1.8,0,2.865-.885,2.865-2.367v-.012A2,2,0,0,0,5.355-4.43v-.094A1.864,1.864,0,0,0,6.814-6.34v-.012c0-1.289-.949-2.1-2.5-2.1H1.078ZM4.09-7.523c1.049,0,1.658.5,1.658,1.354v.012c0,.891-.65,1.348-1.928,1.348H2.133V-7.523ZM4.119-3.9c1.348,0,2.039.5,2.039,1.471v.012c0,.973-.668,1.488-1.939,1.488H2.133V-3.9ZM10.951.111A1.9,1.9,0,0,0,12.826-.943h.094V0h1.02V-6.316H12.92v3.738A1.59,1.59,0,0,1,11.215-.791C10.207-.791,9.8-1.336,9.8-2.473V-6.316H8.777v4.09C8.777-.732,9.516.111,10.951.111Zm5.426,2.1c1.119,0,1.641-.41,2.162-1.828l2.467-6.7H19.934l-1.729,5.2h-.094l-1.734-5.2h-1.09L17.625.006l-.117.375c-.229.727-.58.99-1.16.99a2.426,2.426,0,0,1-.422-.029V2.18A2.983,2.983,0,0,0,16.377,2.215Zm9.363-.105h1.02V-1h.094A2.173,2.173,0,0,0,28.822.111c1.605,0,2.648-1.283,2.648-3.264v-.012c0-1.969-1.049-3.264-2.648-3.264a2.16,2.16,0,0,0-1.969,1.119H26.76V-6.316H25.74Zm2.848-2.9c-1.148,0-1.852-.9-1.852-2.361v-.012c0-1.459.7-2.361,1.852-2.361s1.84.891,1.84,2.361v.012C30.428-1.682,29.742-.791,28.588-.791ZM33.064,0h1.02V-3.914a1.53,1.53,0,0,1,1.664-1.541,3.668,3.668,0,0,1,.627.059v-.99a3.423,3.423,0,0,0-.51-.041,1.645,1.645,0,0,0-1.687,1.049h-.094v-.937h-1.02Zm5.109-7.535a.705.705,0,0,0,.7-.7.705.705,0,0,0-.7-.7.705.705,0,0,0-.7.7A.705.705,0,0,0,38.174-7.535ZM37.658,0h1.02V-6.316h-1.02Zm5.525.111a2.445,2.445,0,0,0,2.625-1.957l.012-.064L44.813-1.9l-.012.035A1.538,1.538,0,0,1,43.178-.791c-1.125,0-1.852-.932-1.852-2.385v-.012c0-1.424.715-2.338,1.852-2.338A1.559,1.559,0,0,1,44.807-4.4l.006.018h1.014l-.006-.035a2.455,2.455,0,0,0-2.643-2.01c-1.77,0-2.895,1.277-2.895,3.24v.012C40.283-1.172,41.414.111,43.184.111Zm6.709,0a2.515,2.515,0,0,0,2.607-1.7l.012-.047h-1.02l-.023.053A1.629,1.629,0,0,1,49.916-.8a1.851,1.851,0,0,1-1.875-2.068h4.547v-.4c0-1.887-1.043-3.164-2.76-3.164S47-5.092,47-3.141v.006C47-1.154,48.088.111,49.893.111Zm-.07-5.631c.932,0,1.623.592,1.729,1.84H48.059A1.776,1.776,0,0,1,49.822-5.52Z" transform="translate(15 19.031)" fill="#999"/>
      <path id="Path_14587" data-name="Path 14587" d="M4.43.2A3.024,3.024,0,0,0,7.781-2.906V-8.455H6.727v5.479a2.094,2.094,0,0,1-2.3,2.2,2.1,2.1,0,0,1-2.309-2.2V-8.455H1.066v5.549A3.034,3.034,0,0,0,4.43.2ZM12.7.2c1.887,0,3.123-.984,3.123-2.566v-.006c0-1.219-.7-1.928-2.461-2.32L12.422-4.9c-1.148-.252-1.611-.709-1.611-1.383v-.006c0-.885.814-1.383,1.869-1.389,1.1-.006,1.8.545,1.922,1.289l.012.076h1.055L15.662-6.4a2.686,2.686,0,0,0-2.953-2.256c-1.746,0-2.971.99-2.977,2.391v.006c0,1.225.732,2,2.426,2.379l.938.205c1.16.258,1.646.738,1.646,1.441v.006c0,.861-.838,1.453-1.986,1.453-1.219,0-2.1-.533-2.174-1.377l-.006-.064H9.521l.006.064C9.65-.773,10.846.2,12.7.2ZM17.572,0h2.9c2.514,0,3.99-1.564,3.99-4.225v-.012c0-2.654-1.482-4.219-3.99-4.219h-2.9Zm1.055-.949V-7.506H20.4c1.875,0,2.982,1.219,2.982,3.281v.012c0,2.057-1.1,3.264-2.982,3.264ZM28.137,0h1.055V-7.506h2.725v-.949h-6.5v.949h2.725Z" transform="translate(230 19.895)" fill="#999"/>
      <path id="Path_14772" data-name="Path 14772" d="M3.533.141C5.227.141,6.469-.9,6.469-2.314v-.012A2.046,2.046,0,0,0,4.4-4.4v-.023A2.034,2.034,0,0,0,6.193-6.4v-.012C6.193-7.7,5.133-8.6,3.521-8.6A2.579,2.579,0,0,0,.715-6.3L.709-6.24H1.723L1.729-6.3A1.614,1.614,0,0,1,3.521-7.682c1.031,0,1.611.51,1.611,1.395v.012A1.543,1.543,0,0,1,3.422-4.811H2.408v.891H3.469C4.652-3.92,5.4-3.34,5.4-2.3v.012c0,.9-.756,1.518-1.863,1.518-1.125,0-1.887-.574-1.975-1.406l-.006-.059H.539l.006.07C.656-.832,1.787.141,3.533.141Zm7.166,0c1.793,0,3.07-1.008,3.07-2.426V-2.3a2.236,2.236,0,0,0-1.816-2.162v-.023a1.97,1.97,0,0,0,1.512-1.881v-.012C13.465-7.652,12.3-8.6,10.7-8.6s-2.766.943-2.766,2.221v.012A1.97,1.97,0,0,0,9.445-4.482v.023A2.236,2.236,0,0,0,7.629-2.3v.012C7.629-.867,8.906.141,10.7.141Zm0-5.016c-1.02,0-1.717-.58-1.717-1.4v-.012c0-.82.7-1.4,1.717-1.4s1.717.58,1.717,1.4v.012C12.416-5.455,11.719-4.875,10.7-4.875Zm0,4.1c-1.166,0-2-.656-2-1.57v-.012c0-.926.826-1.588,2-1.588s2,.662,2,1.588v.012C12.7-1.436,11.865-.779,10.7-.779Zm3.674,2.438H15.1l.855-2.865H14.889ZM17.385,0h5.584V-.937H18.832V-.961l2.01-2.062c1.553-1.588,1.98-2.285,1.98-3.211v-.012A2.455,2.455,0,0,0,20.174-8.6a2.666,2.666,0,0,0-2.842,2.549v.035h1.02v-.029a1.719,1.719,0,0,1,1.84-1.635,1.479,1.479,0,0,1,1.576,1.482v.012c0,.7-.264,1.16-1.406,2.35L17.385-.727Zm9.645.141c1.693,0,2.936-1.043,2.936-2.455v-.012A2.046,2.046,0,0,0,27.9-4.4v-.023A2.034,2.034,0,0,0,29.689-6.4v-.012c0-1.283-1.061-2.18-2.672-2.18a2.579,2.579,0,0,0-2.807,2.3l-.006.059h1.014l.006-.059a1.614,1.614,0,0,1,1.793-1.383c1.031,0,1.611.51,1.611,1.395v.012a1.543,1.543,0,0,1-1.711,1.465H25.9v.891h1.061c1.184,0,1.928.58,1.928,1.617v.012c0,.9-.756,1.518-1.863,1.518-1.125,0-1.887-.574-1.975-1.406l-.006-.059H24.035l.006.07C24.152-.832,25.283.141,27.029.141Zm7.2,0c1.945,0,3.111-1.682,3.111-4.365v-.012c0-2.684-1.166-4.359-3.111-4.359s-3.1,1.676-3.1,4.359v.012C31.131-1.541,32.285.141,34.23.141Zm0-.92c-1.289,0-2.039-1.324-2.039-3.445v-.012c0-2.121.75-3.434,2.039-3.434s2.051,1.313,2.051,3.434v.012C36.281-2.1,35.52-.779,34.23-.779Zm4.7.861A.66.66,0,0,0,39.6-.586a.66.66,0,0,0-.668-.668.66.66,0,0,0-.668.668A.66.66,0,0,0,38.93.082ZM40.9,0h5.584V-.937H42.352V-.961l2.01-2.062c1.553-1.588,1.98-2.285,1.98-3.211v-.012A2.455,2.455,0,0,0,43.693-8.6a2.666,2.666,0,0,0-2.842,2.549v.035h1.02v-.029a1.719,1.719,0,0,1,1.84-1.635,1.479,1.479,0,0,1,1.576,1.482v.012c0,.7-.264,1.16-1.406,2.35L40.9-.727Zm8.953,0h1.02V-8.455H49.846L47.6-6.838v1.061l2.238-1.559h.023Z" transform="translate(167.328 19.568)" fill="#fff"/>
    </g>
    <g id="Group_11069" data-name="Group 11069" transform="translate(8 91.784)">
      <g id="Rectangle_4600" data-name="Rectangle 4600" transform="translate(0 0.216)" fill="#202630" stroke="#2fbf83" stroke-width="1">
        <rect width="270" height="73" rx="8" stroke="none"/>
        <rect x="0.5" y="0.5" width="269" height="72" rx="7.5" fill="none"/>
      </g>
      <path id="Path_14591" data-name="Path 14591" d="M.539,0H2.016L3.148-3.227H7.633L8.766,0h1.477L6.086-11.273H4.7ZM5.328-9.453h.125L7.219-4.422H3.563ZM12.047,0h1.359V-5.219a2.03,2.03,0,0,1,1.938-2.148,1.6,1.6,0,0,1,1.75,1.648V0h1.359V-5.414A1.894,1.894,0,0,1,20.4-7.367c1.188,0,1.758.617,1.758,1.859V0h1.359V-5.82a2.457,2.457,0,0,0-2.68-2.75,2.82,2.82,0,0,0-2.578,1.477h-.125A2.431,2.431,0,0,0,15.8-8.57a2.3,2.3,0,0,0-2.273,1.43h-.125V-8.422H12.047ZM29.43.148c2.4,0,3.883-1.656,3.883-4.352v-.016c0-2.7-1.484-4.352-3.883-4.352s-3.883,1.648-3.883,4.352V-4.2C25.547-1.508,27.031.148,29.43.148Zm0-1.2c-1.594,0-2.492-1.164-2.492-3.148v-.016c0-1.992.9-3.148,2.492-3.148s2.492,1.156,2.492,3.148V-4.2C31.922-2.219,31.023-1.055,29.43-1.055Zm8.813,1.2a2.526,2.526,0,0,0,2.5-1.406h.125V0h1.359V-8.422H40.867v4.984a2.12,2.12,0,0,1-2.273,2.383C37.25-1.055,36.7-1.781,36.7-3.3V-8.422H35.344v5.453C35.344-.977,36.328.148,38.242.148ZM44.758,0h1.359V-4.984a2.13,2.13,0,0,1,2.2-2.383c1.344,0,1.969.727,1.969,2.242V0h1.359V-5.453c0-2-1.055-3.117-2.945-3.117a2.475,2.475,0,0,0-2.453,1.414h-.125V-8.422H44.758ZM57.086.063a4.5,4.5,0,0,0,.789-.078V-1.172a5.675,5.675,0,0,1-.625.031c-.875,0-1.219-.4-1.219-1.391V-7.3h1.844V-8.422H56.031V-10.6H54.625v2.18H53.3V-7.3h1.328v5.109C54.625-.578,55.352.063,57.086.063Zm10.328,0A4.5,4.5,0,0,0,68.2-.016V-1.172a5.675,5.675,0,0,1-.625.031c-.875,0-1.219-.4-1.219-1.391V-7.3H68.2V-8.422H66.359V-10.6H64.953v2.18H63.625V-7.3h1.328v5.109C64.953-.578,65.68.063,67.414.063Zm6.164.086c2.4,0,3.883-1.656,3.883-4.352v-.016c0-2.7-1.484-4.352-3.883-4.352S69.7-6.922,69.7-4.219V-4.2C69.7-1.508,71.18.148,73.578.148Zm0-1.2c-1.594,0-2.492-1.164-2.492-3.148v-.016c0-1.992.9-3.148,2.492-3.148S76.07-6.211,76.07-4.219V-4.2C76.07-2.219,75.172-1.055,73.578-1.055Zm14.7,1.2C90.406.148,91.8-1.578,91.8-4.2v-.016c0-2.641-1.391-4.352-3.531-4.352a2.9,2.9,0,0,0-2.625,1.477h-.125v-4.672H84.164V0h1.359V-1.344h.125A2.879,2.879,0,0,0,88.273.148Zm-.312-1.2c-1.531,0-2.469-1.2-2.469-3.148v-.016c0-1.945.938-3.148,2.469-3.148s2.453,1.188,2.453,3.148V-4.2C90.414-2.242,89.5-1.055,87.961-1.055Zm8.773,1.2a2.526,2.526,0,0,0,2.5-1.406h.125V0h1.359V-8.422H99.359v4.984a2.12,2.12,0,0,1-2.273,2.383c-1.344,0-1.891-.727-1.891-2.242V-8.422H93.836v5.453C93.836-.977,94.82.148,96.734.148Zm7.234,2.8c1.492,0,2.188-.547,2.883-2.437l3.289-8.937h-1.43l-2.3,6.93h-.125l-2.312-6.93h-1.453l3.117,8.43-.156.5c-.3.969-.773,1.32-1.547,1.32a3.235,3.235,0,0,1-.562-.039V2.906A3.978,3.978,0,0,0,103.969,2.953Z" transform="translate(13 26.346)" fill="#999"/>
      <path id="Path_14589" data-name="Path 14589" d="M1.078,0h3.3c1.8,0,2.865-.885,2.865-2.367v-.012A2,2,0,0,0,5.355-4.43v-.094A1.864,1.864,0,0,0,6.814-6.34v-.012c0-1.289-.949-2.1-2.5-2.1H1.078ZM4.09-7.523c1.049,0,1.658.5,1.658,1.354v.012c0,.891-.65,1.348-1.928,1.348H2.133V-7.523ZM4.119-3.9c1.348,0,2.039.5,2.039,1.471v.012c0,.973-.668,1.488-1.939,1.488H2.133V-3.9ZM11.162,0h1.055V-7.506h2.725v-.949h-6.5v.949h2.725Zm8.461.2A3.217,3.217,0,0,0,23.039-2.35v-.012H21.973l-.012.012A2.253,2.253,0,0,1,19.623-.773c-1.629,0-2.648-1.33-2.648-3.445V-4.23c0-2.115,1.02-3.451,2.643-3.451a2.325,2.325,0,0,1,2.35,1.77l.006.012h1.061l.006-.012a3.3,3.3,0,0,0-3.422-2.742c-2.3,0-3.727,1.7-3.727,4.424v.012C15.891-1.5,17.326.2,19.623.2Z" transform="translate(234.641 26.168)" fill="#909090"/>
      <line id="Line_19" data-name="Line 19" x1="268" transform="translate(1 42.683)" fill="none" stroke="#999" stroke-width="1"/>
      <line id="Line_143" data-name="Line 143" y2="29.898" transform="translate(62.339 42.683)" fill="none" stroke="#999" stroke-width="1"/>
      <line id="Line_144" data-name="Line 144" y2="29.898" transform="translate(131.301 42.683)" fill="none" stroke="#999" stroke-width="1"/>
      <line id="Line_145" data-name="Line 145" y2="29.898" transform="translate(207.248 42.683)" fill="none" stroke="#999" stroke-width="1"/>
      <path id="Path_14592" data-name="Path 14592" d="M.571,0H5.225V-.781H1.777V-.8L3.452-2.52C4.746-3.843,5.1-4.424,5.1-5.2v-.01A2.046,2.046,0,0,0,2.9-7.163,2.222,2.222,0,0,0,.527-5.039v.029h.85v-.024A1.433,1.433,0,0,1,2.91-6.4,1.233,1.233,0,0,1,4.224-5.161v.01c0,.586-.22.967-1.172,1.958L.571-.605ZM8.657.117a2.359,2.359,0,0,0,2.51-2.4v-.01A2.253,2.253,0,0,0,8.838-4.624a1.892,1.892,0,0,0-1.6.728h-.02l.239-2.368h3.311v-.781H6.733L6.372-3.027h.776a1.749,1.749,0,0,1,.332-.415,1.737,1.737,0,0,1,1.2-.425,1.545,1.545,0,0,1,1.606,1.592v.01A1.546,1.546,0,0,1,8.667-.654a1.479,1.479,0,0,1-1.558-1.23l0-.039H6.24l0,.054A2.251,2.251,0,0,0,8.657.117Zm4.727-3.687c.889,0,1.426-.679,1.426-1.768v0c0-1.084-.537-1.763-1.426-1.763s-1.426.679-1.426,1.763v0C11.958-4.248,12.5-3.569,13.384-3.569ZM13.7,0l4.512-7.046h-.791L12.9,0Zm-.317-4.155c-.474,0-.747-.439-.747-1.182v0c0-.742.273-1.177.747-1.177s.747.435.747,1.177v0C14.131-4.595,13.857-4.155,13.384-4.155ZM17.725.059c.889,0,1.426-.679,1.426-1.768v0c0-1.084-.537-1.763-1.426-1.763S16.3-2.8,16.3-1.714v0C16.3-.62,16.836.059,17.725.059Zm0-.586c-.474,0-.747-.439-.747-1.182v0c0-.742.273-1.177.747-1.177s.747.435.747,1.177v0C18.472-.967,18.2-.527,17.725-.527Z" transform="translate(21.5 61.632)" fill="#fff"/>
      <path id="Path_14593" data-name="Path 14593" d="M2.993.117A2.359,2.359,0,0,0,5.5-2.28v-.01A2.253,2.253,0,0,0,3.174-4.624a1.892,1.892,0,0,0-1.6.728h-.02l.239-2.368H5.1v-.781H1.069L.708-3.027h.776a1.749,1.749,0,0,1,.332-.415,1.737,1.737,0,0,1,1.2-.425A1.545,1.545,0,0,1,4.624-2.275v.01A1.546,1.546,0,0,1,3-.654a1.479,1.479,0,0,1-1.558-1.23l0-.039H.576l0,.054A2.251,2.251,0,0,0,2.993.117Zm5.884,0c1.621,0,2.593-1.4,2.593-3.638v-.01c0-2.236-.972-3.633-2.593-3.633S6.294-5.767,6.294-3.53v.01C6.294-1.284,7.256.117,8.877.117Zm0-.767c-1.074,0-1.7-1.1-1.7-2.871v-.01c0-1.768.625-2.861,1.7-2.861S10.586-5.3,10.586-3.53v.01C10.586-1.753,9.951-.649,8.877-.649Zm4.907-2.92c.889,0,1.426-.679,1.426-1.768v0c0-1.084-.537-1.763-1.426-1.763s-1.426.679-1.426,1.763v0C12.358-4.248,12.9-3.569,13.784-3.569ZM14.1,0l4.512-7.046h-.791L13.3,0Zm-.317-4.155c-.474,0-.747-.439-.747-1.182v0c0-.742.273-1.177.747-1.177s.747.435.747,1.177v0C14.531-4.595,14.258-4.155,13.784-4.155ZM18.125.059c.889,0,1.426-.679,1.426-1.768v0c0-1.084-.537-1.763-1.426-1.763S16.7-2.8,16.7-1.714v0C16.7-.62,17.236.059,18.125.059Zm0-.586c-.474,0-.747-.439-.747-1.182v0c0-.742.273-1.177.747-1.177s.747.435.747,1.177v0C18.872-.967,18.6-.527,18.125-.527Z" transform="translate(87.541 61.632)" fill="#fff"/>
      <path id="Path_14594" data-name="Path 14594" d="M.977,0H1.9L5.034-6.23v-.815H.371v.781H4.165v.02ZM8.462.117a2.359,2.359,0,0,0,2.51-2.4v-.01A2.253,2.253,0,0,0,8.643-4.624a1.892,1.892,0,0,0-1.6.728h-.02l.239-2.368h3.311v-.781H6.538L6.177-3.027h.776a1.749,1.749,0,0,1,.332-.415,1.737,1.737,0,0,1,1.2-.425,1.545,1.545,0,0,1,1.606,1.592v.01A1.546,1.546,0,0,1,8.472-.654a1.479,1.479,0,0,1-1.558-1.23l0-.039H6.045l0,.054A2.251,2.251,0,0,0,8.462.117Zm4.727-3.687c.889,0,1.426-.679,1.426-1.768v0c0-1.084-.537-1.763-1.426-1.763s-1.426.679-1.426,1.763v0C11.763-4.248,12.3-3.569,13.188-3.569ZM13.506,0l4.512-7.046h-.791L12.705,0Zm-.317-4.155c-.474,0-.747-.439-.747-1.182v0c0-.742.273-1.177.747-1.177s.747.435.747,1.177v0C13.936-4.595,13.662-4.155,13.188-4.155ZM17.529.059c.889,0,1.426-.679,1.426-1.768v0c0-1.084-.537-1.763-1.426-1.763S16.1-2.8,16.1-1.714v0C16.1-.62,16.641.059,17.529.059Zm0-.586c-.474,0-.747-.439-.747-1.182v0c0-.742.273-1.177.747-1.177s.747.435.747,1.177v0C18.276-.967,18-.527,17.529-.527Z" transform="translate(157.573 61.632)" fill="#fff"/>
      <path id="Path_14595" data-name="Path 14595" d="M2.368,0h.85V-7.046H2.358L.483-5.7v.884l1.865-1.3h.02ZM7.461.117c1.621,0,2.593-1.4,2.593-3.638v-.01c0-2.236-.972-3.633-2.593-3.633S4.878-5.767,4.878-3.53v.01C4.878-1.284,5.84.117,7.461.117Zm0-.767c-1.074,0-1.7-1.1-1.7-2.871v-.01c0-1.768.625-2.861,1.7-2.861S9.17-5.3,9.17-3.53v.01C9.17-1.753,8.535-.649,7.461-.649Zm6.064.767c1.621,0,2.593-1.4,2.593-3.638v-.01c0-2.236-.972-3.633-2.593-3.633s-2.583,1.4-2.583,3.633v.01C10.942-1.284,11.9.117,13.525.117Zm0-.767c-1.074,0-1.7-1.1-1.7-2.871v-.01c0-1.768.625-2.861,1.7-2.861S15.234-5.3,15.234-3.53v.01C15.234-1.753,14.6-.649,13.525-.649Zm4.907-2.92c.889,0,1.426-.679,1.426-1.768v0c0-1.084-.537-1.763-1.426-1.763s-1.426.679-1.426,1.763v0C17.007-4.248,17.544-3.569,18.433-3.569ZM18.75,0l4.512-7.046h-.791L17.949,0Zm-.317-4.155c-.474,0-.747-.439-.747-1.182v0c0-.742.273-1.177.747-1.177s.747.435.747,1.177v0C19.18-4.595,18.906-4.155,18.433-4.155ZM22.773.059c.889,0,1.426-.679,1.426-1.768v0c0-1.084-.537-1.763-1.426-1.763s-1.426.679-1.426,1.763v0C21.348-.62,21.885.059,22.773.059Zm0-.586c-.474,0-.747-.439-.747-1.182v0c0-.742.273-1.177.747-1.177s.747.435.747,1.177v0C23.521-.967,23.247-.527,22.773-.527Z" transform="translate(222.5 61.632)" fill="#fff"/>
    </g>
    <g id="Group_12651" data-name="Group 12651" transform="translate(0 -10)">
      <rect id="Rectangle_4863" data-name="Rectangle 4863" width="270" height="40" rx="8" transform="translate(8 192)" fill="#202630"/>
      <g id="price" transform="translate(24 205.122)">
        <path id="Path_14597" data-name="Path 14597" d="M3.275,0H4.33V-7.506H7.055v-.949H.551v.949H3.275Zm6.7.111c1.8,0,2.912-1.242,2.912-3.264v-.012c0-2.027-1.113-3.264-2.912-3.264S7.066-5.191,7.066-3.164v.012C7.066-1.131,8.18.111,9.979.111Zm0-.9c-1.2,0-1.869-.873-1.869-2.361v-.012c0-1.494.674-2.361,1.869-2.361s1.869.867,1.869,2.361v.012C11.848-1.664,11.174-.791,9.979-.791Zm6.738.838a3.376,3.376,0,0,0,.592-.059V-.879a4.256,4.256,0,0,1-.469.023c-.656,0-.914-.3-.914-1.043V-5.473h1.383v-.844H15.926V-7.951H14.871v1.635h-1v.844h1v3.832C14.871-.434,15.416.047,16.717.047Zm3.85.064a2.105,2.105,0,0,0,1.91-1.043h.094V0h1.02V-4.324c0-1.312-.861-2.1-2.4-2.1A2.254,2.254,0,0,0,18.715-4.77l-.006.035h1.02l.006-.018c.164-.492.662-.773,1.418-.773.943,0,1.418.422,1.418,1.2v.574l-1.811.111c-1.471.088-2.3.738-2.3,1.863v.012A1.912,1.912,0,0,0,20.566.111ZM19.5-1.787V-1.8c0-.627.422-.967,1.383-1.025L22.57-2.93v.574A1.651,1.651,0,0,1,20.777-.773C20.045-.773,19.5-1.148,19.5-1.787ZM25.512,0h1.02V-8.824h-1.02Z" transform="translate(0 11.506)" fill="#999"/>
        <path id="Path_14596" data-name="Path 14596" d="M4.43.2A3.024,3.024,0,0,0,7.781-2.906V-8.455H6.727v5.479a2.094,2.094,0,0,1-2.3,2.2,2.1,2.1,0,0,1-2.309-2.2V-8.455H1.066v5.549A3.034,3.034,0,0,0,4.43.2ZM12.7.2c1.887,0,3.123-.984,3.123-2.566v-.006c0-1.219-.7-1.928-2.461-2.32L12.422-4.9c-1.148-.252-1.611-.709-1.611-1.383v-.006c0-.885.814-1.383,1.869-1.389,1.1-.006,1.8.545,1.922,1.289l.012.076h1.055L15.662-6.4a2.686,2.686,0,0,0-2.953-2.256c-1.746,0-2.971.99-2.977,2.391v.006c0,1.225.732,2,2.426,2.379l.938.205c1.16.258,1.646.738,1.646,1.441v.006c0,.861-.838,1.453-1.986,1.453-1.219,0-2.1-.533-2.174-1.377l-.006-.064H9.521l.006.064C9.65-.773,10.846.2,12.7.2ZM17.572,0h2.9c2.514,0,3.99-1.564,3.99-4.225v-.012c0-2.654-1.482-4.219-3.99-4.219h-2.9Zm1.055-.949V-7.506H20.4c1.875,0,2.982,1.219,2.982,3.281v.012c0,2.057-1.1,3.264-2.982,3.264ZM28.137,0h1.055V-7.506h2.725v-.949h-6.5v.949h2.725Z" transform="translate(214 10.793)" fill="#999"/>
      </g>
      <path id="Path_14919" data-name="Path 14919" d="M2.842,0h1.02V-8.455H2.83L.58-6.838v1.061L2.818-7.336h.023ZM8.982-8.6A2.842,2.842,0,0,0,5.988-5.725v.012A2.726,2.726,0,0,0,8.795-2.918,2.521,2.521,0,0,0,11.15-4.277h.023c-.012,1.857-.621,3.486-2.25,3.486A1.707,1.707,0,0,1,7.2-1.922l-.023-.064H6.105l.018.076A2.7,2.7,0,0,0,8.912.141c2.068,0,3.281-1.664,3.281-4.512v-.012C12.193-7.518,10.541-8.6,8.982-8.6ZM8.977-3.844A1.837,1.837,0,0,1,7.061-5.736v-.012a1.908,1.908,0,0,1,1.934-1.91,1.918,1.918,0,0,1,1.928,1.945v.006A1.855,1.855,0,0,1,8.977-3.844ZM15.451,0h1.02V-8.455H15.439l-2.25,1.617v1.061l2.238-1.559h.023Zm5.32,0h1.02V-8.455H20.76L18.51-6.838v1.061l2.238-1.559h.023Zm6.07.141a2.831,2.831,0,0,0,3.012-2.877v-.012a2.7,2.7,0,0,0-2.795-2.8,2.271,2.271,0,0,0-1.922.873h-.023L25.4-7.518h3.973v-.937h-4.84L24.1-3.633h.932a2.1,2.1,0,0,1,.4-.5,2.084,2.084,0,0,1,1.441-.51A1.854,1.854,0,0,1,28.8-2.73v.012A1.855,1.855,0,0,1,26.854-.785a1.774,1.774,0,0,1-1.869-1.477l-.006-.047H23.941l.006.064A2.7,2.7,0,0,0,26.842.141ZM33.111,0h1.02V-8.455H33.1L30.85-6.838v1.061l2.238-1.559h.023Zm3.475.082a.66.66,0,0,0,.668-.668.66.66,0,0,0-.668-.668.66.66,0,0,0-.668.668A.66.66,0,0,0,36.586.082Zm4.922.059c1.945,0,3.111-1.682,3.111-4.365v-.012c0-2.684-1.166-4.359-3.111-4.359s-3.1,1.676-3.1,4.359v.012C38.408-1.541,39.563.141,41.508.141Zm0-.92c-1.289,0-2.039-1.324-2.039-3.445v-.012c0-2.121.75-3.434,2.039-3.434s2.051,1.313,2.051,3.434v.012C43.559-2.1,42.8-.779,41.508-.779Zm7.236.92a2.831,2.831,0,0,0,3.012-2.877v-.012a2.7,2.7,0,0,0-2.795-2.8,2.271,2.271,0,0,0-1.922.873h-.023L47.3-7.518h3.973v-.937h-4.84L46-3.633h.932a2.1,2.1,0,0,1,.4-.5,2.084,2.084,0,0,1,1.441-.51A1.854,1.854,0,0,1,50.7-2.73v.012A1.855,1.855,0,0,1,48.756-.785a1.774,1.774,0,0,1-1.869-1.477l-.006-.047H45.844l.006.064A2.7,2.7,0,0,0,48.744.141Z" transform="translate(176.234 216.412)" fill="#fff"/>
    </g>
  </g>
  <g id="agg-2" data-name="agg" transform="translate(109 246.538)">
    <path id="Path_14599" data-name="Path 14599" d="M3.4,0H4.459V-3.639l3-4.816h-1.2L3.979-4.7H3.885L1.605-8.455H.4l3,4.816Zm8.678.2c2.414,0,3.879-1.729,3.879-4.424v-.012c0-2.707-1.477-4.418-3.879-4.418S8.2-6.949,8.2-4.236v.012C8.2-1.523,9.656.2,12.082.2Zm0-.973c-1.758,0-2.8-1.359-2.8-3.451v-.012c0-2.109,1.078-3.445,2.8-3.445s2.8,1.336,2.8,3.445v.012C14.883-2.133,13.816-.773,12.082-.773ZM21.141.2a3.024,3.024,0,0,0,3.352-3.105V-8.455H23.438v5.479a2.094,2.094,0,0,1-2.3,2.2,2.1,2.1,0,0,1-2.309-2.2V-8.455H17.777v5.549A3.034,3.034,0,0,0,21.141.2ZM33.527.2A3.331,3.331,0,0,0,37.119-3.27V-4.3H33.691v.926h2.373v.205a2.338,2.338,0,0,1-2.531,2.4c-1.7,0-2.76-1.324-2.76-3.451v-.012c0-2.1,1.078-3.445,2.754-3.445a2.353,2.353,0,0,1,2.455,1.688L36-5.936h1.066l-.012-.059a3.354,3.354,0,0,0-3.527-2.66C31.213-8.654,29.7-6.9,29.7-4.236v.012C29.7-1.523,31.189.2,33.527.2ZM38.982,0h5.238V-.949H40.037V-3.855H44v-.937H40.037V-7.506h4.184v-.949H38.982Zm9.346,0h1.055V-7.506h2.725v-.949H45.6v.949h2.725Z" transform="translate(25 11.462)" fill="#fff"/>
  </g>
  <g id="agg-3" data-name="agg" transform="translate(9 244.538)">
    <path id="Path_14598" data-name="Path 14598" d="M1.078,0H2.133V-3.662H5.877V-4.6H2.133V-7.506H6.211v-.949H1.078Zm9.316.111A2.515,2.515,0,0,0,13-1.588l.012-.047h-1.02l-.023.053A1.629,1.629,0,0,1,10.418-.8,1.851,1.851,0,0,1,8.543-2.865H13.09v-.4c0-1.887-1.043-3.164-2.76-3.164S7.5-5.092,7.5-3.141v.006C7.5-1.154,8.59.111,10.395.111Zm-.07-5.631c.932,0,1.623.592,1.729,1.84H8.561A1.776,1.776,0,0,1,10.324-5.52ZM17.25.111a2.515,2.515,0,0,0,2.607-1.7l.012-.047H18.85l-.023.053A1.629,1.629,0,0,1,17.273-.8,1.851,1.851,0,0,1,15.4-2.865h4.547v-.4c0-1.887-1.043-3.164-2.76-3.164s-2.83,1.336-2.83,3.287v.006C14.355-1.154,15.445.111,17.25.111ZM17.18-5.52c.932,0,1.623.592,1.729,1.84H15.416A1.776,1.776,0,0,1,17.18-5.52ZM58.579.2c1.869,0,2.994-1.705,2.994-4.424v-.012c0-2.719-1.125-4.418-2.994-4.418S55.6-6.955,55.6-4.236v.012C55.6-1.506,56.71.2,58.579.2Zm0-.92c-1.213,0-1.922-1.348-1.922-3.5v-.012c0-2.156.709-3.492,1.922-3.492s1.934,1.336,1.934,3.492v.012C60.512-2.068,59.792-.721,58.579-.721Zm5.158.779A.764.764,0,0,0,64.5-.7a.76.76,0,0,0-.762-.762.764.764,0,0,0-.762.762A.768.768,0,0,0,63.736.059ZM66.287,0h5.473V-.949H67.751v-.094l1.922-1.986c1.529-1.576,1.945-2.279,1.945-3.246v-.012a2.437,2.437,0,0,0-2.607-2.367,2.6,2.6,0,0,0-2.783,2.578l.012.006,1.008.006.006-.012a1.579,1.579,0,0,1,1.688-1.658,1.5,1.5,0,0,1,1.6,1.559v.012c0,.738-.316,1.178-1.395,2.344L66.287-.727Zm8.878-4.008c1.078,0,1.734-.879,1.734-2.279v-.006c0-1.4-.656-2.273-1.734-2.273s-1.729.873-1.729,2.273v.006C73.436-4.887,74.087-4.008,75.165-4.008ZM75.78,0l5.771-8.455H80.62L74.849,0Zm-.615-4.705c-.58,0-.914-.592-.914-1.582v-.006c0-.99.334-1.576.914-1.576s.92.586.92,1.576v.006C76.085-5.3,75.745-4.705,75.165-4.705ZM81.224.111c1.078,0,1.734-.879,1.734-2.279v-.006c0-1.4-.656-2.273-1.734-2.273S79.5-3.574,79.5-2.174v.006C79.5-.768,80.145.111,81.224.111Zm0-.7c-.58,0-.914-.592-.914-1.582v-.006c0-.99.334-1.576.914-1.576s.92.586.92,1.576v.006C82.144-1.178,81.8-.586,81.224-.586Z" transform="translate(0 13.462)" fill="#fff"/>
  </g>
  <path id="Path_14779" data-name="Path 14779" d="M5.285-2.865H6.469v.885H5.285V0H4.2V-1.98H.311v-.639l3.82-5.912H5.285Zm-3.744,0H4.2V-7.049l-.129.234Zm6.041,2.3a.679.679,0,0,1,.167-.469.636.636,0,0,1,.5-.187.655.655,0,0,1,.507.188.665.665,0,0,1,.173.469.629.629,0,0,1-.173.451A.667.667,0,0,1,8.25.064a.648.648,0,0,1-.5-.182A.641.641,0,0,1,7.582-.568ZM14.76-3.75a2.652,2.652,0,0,1-.812.65,2.2,2.2,0,0,1-1.034.246,2.273,2.273,0,0,1-1.286-.363,2.362,2.362,0,0,1-.847-1.022,3.486,3.486,0,0,1-.3-1.456,3.551,3.551,0,0,1,.325-1.541,2.389,2.389,0,0,1,.923-1.049,2.632,2.632,0,0,1,1.395-.363,2.382,2.382,0,0,1,2,.946,4.128,4.128,0,0,1,.729,2.581V-4.8a5.515,5.515,0,0,1-.984,3.636A3.782,3.782,0,0,1,11.895.006h-.211V-.908h.229a2.981,2.981,0,0,0,2.063-.7A3.008,3.008,0,0,0,14.76-3.75Zm-1.67,0a1.674,1.674,0,0,0,1-.334,1.969,1.969,0,0,0,.671-.826v-.434A2.983,2.983,0,0,0,14.3-7.078a1.381,1.381,0,0,0-1.172-.668,1.392,1.392,0,0,0-1.148.548,2.26,2.26,0,0,0-.434,1.444,2.352,2.352,0,0,0,.419,1.438A1.326,1.326,0,0,0,13.09-3.75Zm8.408,0a2.652,2.652,0,0,1-.812.65,2.2,2.2,0,0,1-1.034.246,2.273,2.273,0,0,1-1.286-.363,2.362,2.362,0,0,1-.847-1.022,3.486,3.486,0,0,1-.3-1.456,3.551,3.551,0,0,1,.325-1.541,2.389,2.389,0,0,1,.923-1.049,2.632,2.632,0,0,1,1.395-.363,2.382,2.382,0,0,1,2,.946,4.128,4.128,0,0,1,.729,2.581V-4.8A5.515,5.515,0,0,1,21.6-1.169,3.782,3.782,0,0,1,18.633.006h-.211V-.908h.229a2.981,2.981,0,0,0,2.063-.7A3.008,3.008,0,0,0,21.5-3.75Zm-1.67,0a1.674,1.674,0,0,0,1-.334A1.969,1.969,0,0,0,21.5-4.91v-.434a2.983,2.983,0,0,0-.463-1.734,1.381,1.381,0,0,0-1.172-.668,1.392,1.392,0,0,0-1.148.548,2.26,2.26,0,0,0-.434,1.444,2.352,2.352,0,0,0,.419,1.438A1.326,1.326,0,0,0,19.828-3.75Zm9.6.111a4.958,4.958,0,0,1-.65,2.83,2.313,2.313,0,0,1-2.033.926,2.33,2.33,0,0,1-2.021-.905,4.706,4.706,0,0,1-.68-2.7V-4.939a4.847,4.847,0,0,1,.65-2.795,2.331,2.331,0,0,1,2.039-.914,2.352,2.352,0,0,1,2.027.882,4.678,4.678,0,0,1,.668,2.722ZM28.348-5.121a3.972,3.972,0,0,0-.387-2.007,1.331,1.331,0,0,0-1.225-.63,1.314,1.314,0,0,0-1.213.627A3.878,3.878,0,0,0,25.131-5.2v1.734a4.036,4.036,0,0,0,.4,2.042,1.329,1.329,0,0,0,1.216.659,1.31,1.31,0,0,0,1.192-.621,3.89,3.89,0,0,0,.407-1.957ZM36.17-3.639a4.958,4.958,0,0,1-.65,2.83,2.313,2.313,0,0,1-2.033.926,2.33,2.33,0,0,1-2.021-.905,4.706,4.706,0,0,1-.68-2.7V-4.939a4.847,4.847,0,0,1,.65-2.795,2.331,2.331,0,0,1,2.039-.914,2.352,2.352,0,0,1,2.027.882,4.678,4.678,0,0,1,.668,2.722ZM35.086-5.121A3.972,3.972,0,0,0,34.7-7.128a1.331,1.331,0,0,0-1.225-.63,1.314,1.314,0,0,0-1.213.627A3.878,3.878,0,0,0,31.869-5.2v1.734a4.036,4.036,0,0,0,.4,2.042,1.329,1.329,0,0,0,1.216.659,1.31,1.31,0,0,0,1.192-.621,3.89,3.89,0,0,0,.407-1.957Zm7.822,1.482a4.958,4.958,0,0,1-.65,2.83,2.313,2.313,0,0,1-2.033.926A2.33,2.33,0,0,1,38.2-.788a4.706,4.706,0,0,1-.68-2.7V-4.939a4.847,4.847,0,0,1,.65-2.795,2.331,2.331,0,0,1,2.039-.914,2.352,2.352,0,0,1,2.027.882,4.678,4.678,0,0,1,.668,2.722ZM41.824-5.121a3.972,3.972,0,0,0-.387-2.007,1.331,1.331,0,0,0-1.225-.63A1.314,1.314,0,0,0,39-7.131,3.878,3.878,0,0,0,38.607-5.2v1.734a4.036,4.036,0,0,0,.4,2.042,1.329,1.329,0,0,0,1.216.659,1.31,1.31,0,0,0,1.192-.621,3.89,3.89,0,0,0,.407-1.957Zm7.822,1.482A4.958,4.958,0,0,1,49-.809a2.313,2.313,0,0,1-2.033.926,2.33,2.33,0,0,1-2.021-.905,4.706,4.706,0,0,1-.68-2.7V-4.939a4.847,4.847,0,0,1,.65-2.795,2.331,2.331,0,0,1,2.039-.914,2.352,2.352,0,0,1,2.027.882,4.678,4.678,0,0,1,.668,2.722ZM48.563-5.121a3.972,3.972,0,0,0-.387-2.007,1.331,1.331,0,0,0-1.225-.63,1.314,1.314,0,0,0-1.213.627A3.878,3.878,0,0,0,45.346-5.2v1.734a4.036,4.036,0,0,0,.4,2.042,1.329,1.329,0,0,0,1.216.659,1.31,1.31,0,0,0,1.192-.621,3.89,3.89,0,0,0,.407-1.957ZM54.287,0V-8.531h2.789a3.238,3.238,0,0,1,2.089.574,2.07,2.07,0,0,1,.7,1.7,1.733,1.733,0,0,1-.34,1.058,2.2,2.2,0,0,1-.926.712,1.979,1.979,0,0,1,1.093.735,2.11,2.11,0,0,1,.4,1.292,2.282,2.282,0,0,1-.744,1.8,3.077,3.077,0,0,1-2.1.656Zm1.125-3.99V-.92H57.27a1.788,1.788,0,0,0,1.239-.407,1.43,1.43,0,0,0,.454-1.122q0-1.541-1.676-1.541Zm0-.9h1.7a1.784,1.784,0,0,0,1.181-.369,1.236,1.236,0,0,0,.442-1,1.216,1.216,0,0,0-.41-1.022,2.017,2.017,0,0,0-1.248-.319H55.412ZM67.494-7.605H64.752V0H63.633V-7.605H60.9v-.926h6.6Zm7.377,4.9a3.139,3.139,0,0,1-1,2.089,3.274,3.274,0,0,1-2.235.735A3.006,3.006,0,0,1,69.214-.967a4.361,4.361,0,0,1-.911-2.9v-.82a4.861,4.861,0,0,1,.425-2.092,3.173,3.173,0,0,1,1.2-1.386,3.353,3.353,0,0,1,1.8-.483,3.083,3.083,0,0,1,2.18.759,3.176,3.176,0,0,1,.955,2.1H73.74A2.44,2.44,0,0,0,73.1-7.266a1.927,1.927,0,0,0-1.368-.457,2.013,2.013,0,0,0-1.69.8,3.656,3.656,0,0,0-.612,2.268v.826a3.758,3.758,0,0,0,.58,2.209,1.875,1.875,0,0,0,1.623.82,2.165,2.165,0,0,0,1.438-.425,2.357,2.357,0,0,0,.665-1.479Z" transform="translate(202.092 257.994)" fill="#fff"/>
  <path id="Path_14920" data-name="Path 14920" d="M1.482-2.139A1.462,1.462,0,0,0,2.32-.891a2.022,2.022,0,0,0,.867.176,1.628,1.628,0,0,0,1.389-.6,2.147,2.147,0,0,0,.451-1.324A1.731,1.731,0,0,0,4.491-4a1.861,1.861,0,0,0-1.286-.48,1.937,1.937,0,0,0-.935.211,2,2,0,0,0-.665.586L.691-3.732,1.33-8.25H5.689v1.02H2.121L1.764-4.9a2.621,2.621,0,0,1,.557-.334A2.826,2.826,0,0,1,3.4-5.426a2.773,2.773,0,0,1,1.957.744,2.461,2.461,0,0,1,.8,1.887A3.237,3.237,0,0,1,5.429-.7,2.844,2.844,0,0,1,3.082.211,2.989,2.989,0,0,1,1.269-.366,2.289,2.289,0,0,1,.387-2.139Z" transform="translate(229.328 126.497)" fill="#fff"/>
</svg>